<mxfile host="65bd71144e">
    <diagram id="hvvpXWnJROBBwPSEdpZz" name="Page-1">
        <mxGraphModel dx="1708" dy="609" grid="1" gridSize="10" guides="1" tooltips="1" connect="1" arrows="1" fold="1" page="1" pageScale="1" pageWidth="850" pageHeight="1100" math="0" shadow="0">
            <root>
                <mxCell id="0"/>
                <mxCell id="1" parent="0"/>
                <mxCell id="21" style="edgeStyle=none;html=1;exitX=0.5;exitY=0;exitDx=0;exitDy=0;entryX=1;entryY=0;entryDx=0;entryDy=0;" edge="1" parent="1" source="2" target="19">
                    <mxGeometry relative="1" as="geometry"/>
                </mxCell>
                <mxCell id="2" value="TERC" style="rounded=1;whiteSpace=wrap;html=1;fillColor=#fa6800;strokeColor=#C73500;fontColor=#000000;" parent="1" vertex="1">
                    <mxGeometry x="320" y="20" width="180" height="60" as="geometry"/>
                </mxCell>
                <mxCell id="4" value="&lt;h1&gt;&lt;span&gt;&lt;font style=&quot;font-size: 16px&quot;&gt;GetCitiesInVoivodeshipByIdCommand&lt;/font&gt;&lt;/span&gt;&lt;/h1&gt;" style="text;html=1;spacing=5;spacingTop=-20;whiteSpace=wrap;overflow=hidden;rounded=0;fillColor=#f5f5f5;strokeColor=#666666;fontColor=#333333;" parent="1" vertex="1">
                    <mxGeometry x="-50" y="40" width="290" height="40" as="geometry"/>
                </mxCell>
                <mxCell id="5" value="&lt;h1&gt;&lt;span&gt;&lt;font style=&quot;font-size: 16px&quot;&gt;GetCountiesInVoivodeshipByIdCommand&lt;/font&gt;&lt;/span&gt;&lt;/h1&gt;" style="text;html=1;strokeColor=#666666;fillColor=#f5f5f5;spacing=5;spacingTop=-20;whiteSpace=wrap;overflow=hidden;rounded=0;fontColor=#333333;" parent="1" vertex="1">
                    <mxGeometry x="10" y="290" width="330" height="40" as="geometry"/>
                </mxCell>
                <mxCell id="6" value="&lt;h1&gt;&lt;span&gt;&lt;font style=&quot;font-size: 16px&quot;&gt;GetCountrysidesCommand&lt;/font&gt;&lt;/span&gt;&lt;/h1&gt;" style="text;html=1;spacing=5;spacingTop=-20;whiteSpace=wrap;overflow=hidden;rounded=0;fillColor=#f5f5f5;strokeColor=#666666;fontColor=#333333;" parent="1" vertex="1">
                    <mxGeometry x="10" y="150" width="220" height="40" as="geometry"/>
                </mxCell>
                <mxCell id="8" value="&lt;h1&gt;&lt;span&gt;&lt;font style=&quot;font-size: 16px&quot;&gt;GetDeleganciesAndQuartersCommand&lt;/font&gt;&lt;/span&gt;&lt;/h1&gt;" style="text;html=1;spacing=5;spacingTop=-20;whiteSpace=wrap;overflow=hidden;rounded=0;fillColor=#f5f5f5;strokeColor=#666666;fontColor=#333333;" parent="1" vertex="1">
                    <mxGeometry x="390" y="340" width="310" height="40" as="geometry"/>
                </mxCell>
                <mxCell id="9" value="&lt;h1&gt;&lt;span&gt;&lt;font style=&quot;font-size: 16px&quot;&gt;GetDistrictsByIdCommand&lt;/font&gt;&lt;/span&gt;&lt;/h1&gt;" style="text;html=1;spacing=5;spacingTop=-20;whiteSpace=wrap;overflow=hidden;rounded=0;fillColor=#f5f5f5;strokeColor=#666666;fontColor=#333333;" parent="1" vertex="1">
                    <mxGeometry x="490" y="210" width="220" height="40" as="geometry"/>
                </mxCell>
                <mxCell id="10" value="&lt;h1&gt;&lt;span&gt;&lt;font style=&quot;font-size: 16px&quot;&gt;GetVoivodeshipByIdCommand&lt;/font&gt;&lt;/span&gt;&lt;/h1&gt;" style="text;html=1;spacing=5;spacingTop=-20;whiteSpace=wrap;overflow=hidden;rounded=0;fillColor=#f5f5f5;strokeColor=#666666;fontColor=#333333;" parent="1" vertex="1">
                    <mxGeometry x="580" y="50" width="250" height="40" as="geometry"/>
                </mxCell>
                <mxCell id="11" value="&lt;h1&gt;&lt;span&gt;&lt;font style=&quot;font-size: 16px&quot;&gt;GetVoivodeshipsCommand&lt;/font&gt;&lt;/span&gt;&lt;/h1&gt;" style="text;html=1;spacing=5;spacingTop=-20;whiteSpace=wrap;overflow=hidden;rounded=0;fillColor=#f5f5f5;strokeColor=#666666;fontColor=#333333;" parent="1" vertex="1">
                    <mxGeometry x="570" y="130" width="250" height="40" as="geometry"/>
                </mxCell>
                <mxCell id="12" value="" style="endArrow=classic;html=1;fontSize=16;entryX=1;entryY=0.5;entryDx=0;entryDy=0;exitX=0;exitY=0.75;exitDx=0;exitDy=0;" parent="1" source="2" target="6" edge="1">
                    <mxGeometry width="50" height="50" relative="1" as="geometry">
                        <mxPoint x="335" y="100" as="sourcePoint"/>
                        <mxPoint x="275" y="150" as="targetPoint"/>
                    </mxGeometry>
                </mxCell>
                <mxCell id="13" value="" style="endArrow=classic;html=1;fontSize=16;exitX=0.25;exitY=1;exitDx=0;exitDy=0;" parent="1" source="2" target="5" edge="1">
                    <mxGeometry width="50" height="50" relative="1" as="geometry">
                        <mxPoint x="375" y="130" as="sourcePoint"/>
                        <mxPoint x="280" y="200" as="targetPoint"/>
                    </mxGeometry>
                </mxCell>
                <mxCell id="14" value="" style="endArrow=classic;html=1;fontSize=16;entryX=0.152;entryY=-0.1;entryDx=0;entryDy=0;entryPerimeter=0;exitX=0.5;exitY=1;exitDx=0;exitDy=0;" parent="1" source="2" target="8" edge="1">
                    <mxGeometry width="50" height="50" relative="1" as="geometry">
                        <mxPoint x="455" y="130" as="sourcePoint"/>
                        <mxPoint x="360" y="200" as="targetPoint"/>
                    </mxGeometry>
                </mxCell>
                <mxCell id="15" value="" style="endArrow=classic;html=1;fontSize=16;exitX=0.75;exitY=1;exitDx=0;exitDy=0;" parent="1" source="2" target="9" edge="1">
                    <mxGeometry width="50" height="50" relative="1" as="geometry">
                        <mxPoint x="495" y="130" as="sourcePoint"/>
                        <mxPoint x="400" y="200" as="targetPoint"/>
                    </mxGeometry>
                </mxCell>
                <mxCell id="16" value="" style="endArrow=classic;html=1;fontSize=16;exitX=1;exitY=0.75;exitDx=0;exitDy=0;" parent="1" source="2" target="11" edge="1">
                    <mxGeometry width="50" height="50" relative="1" as="geometry">
                        <mxPoint x="520" y="100" as="sourcePoint"/>
                        <mxPoint x="460" y="135" as="targetPoint"/>
                    </mxGeometry>
                </mxCell>
                <mxCell id="17" value="" style="endArrow=classic;html=1;fontSize=16;entryX=1;entryY=0.5;entryDx=0;entryDy=0;exitX=0;exitY=0.25;exitDx=0;exitDy=0;" parent="1" source="2" target="4" edge="1">
                    <mxGeometry width="50" height="50" relative="1" as="geometry">
                        <mxPoint x="315" y="75" as="sourcePoint"/>
                        <mxPoint x="220" y="145" as="targetPoint"/>
                    </mxGeometry>
                </mxCell>
                <mxCell id="18" value="" style="endArrow=classic;html=1;fontSize=16;entryX=0;entryY=0.5;entryDx=0;entryDy=0;exitX=1;exitY=0.25;exitDx=0;exitDy=0;" parent="1" source="2" target="10" edge="1">
                    <mxGeometry width="50" height="50" relative="1" as="geometry">
                        <mxPoint x="495" y="30" as="sourcePoint"/>
                        <mxPoint x="400" y="100" as="targetPoint"/>
                    </mxGeometry>
                </mxCell>
                <mxCell id="19" value="&lt;h1&gt;&lt;span&gt;&lt;font style=&quot;font-size: 16px&quot;&gt;GetCountyByIdCommand&lt;/font&gt;&lt;/span&gt;&lt;/h1&gt;" style="text;html=1;strokeColor=#666666;fillColor=#f5f5f5;spacing=5;spacingTop=-20;whiteSpace=wrap;overflow=hidden;rounded=0;fontColor=#333333;" vertex="1" parent="1">
                    <mxGeometry x="20" y="390" width="330" height="40" as="geometry"/>
                </mxCell>
            </root>
        </mxGraphModel>
    </diagram>
</mxfile>